<svg xmlns="http://www.w3.org/2000/svg" xmlns:svg="http://www.w3.org/2000/svg" id="svg1020" width="24" height="24" version="1.1" viewBox="0 0 6.35 6.35"><metadata id="metadata1017"/><g id="layer1" transform="translate(0,-290.64998)"><path style="fill:#212121;fill-opacity:1;stroke:none;stroke-width:.26458332" id="path7580" d="m 4.5749146,291.57499 c -0.07784,0 -0.1315459,0.0666 -0.1291911,0.14831 v 0.31471 H 2.1177002 c -0.4018492,1.9e-4 -0.7276042,0.32575 -0.7276042,0.7276 v 0.59532 c 0,0.10959 0.088847,0.19843 0.1984375,0.19843 0.1095907,0 0.1984375,-0.0889 0.1984375,-0.19843 v -0.59428 c 0,-0.18267 0.1480608,-0.33073 0.3307292,-0.33073 h 2.326473 v 0.32556 c 0,0.12213 0.1403672,0.18624 0.2268595,0.0997 l 0.620634,-0.62373 -0.622701,-0.6227 c -0.025136,-0.0257 -0.059603,-0.0399 -0.094051,-0.0398 z M 2.38125,293.03123 c -0.1461293,0 -0.2645833,0.11846 -0.2645833,0.26458 v 1.32292 H 2.38125 v -0.52917 h 0.396875 v 0.52917 h 0.2645834 v -1.32292 c 0,-0.14612 -0.1184541,-0.26458 -0.2645834,-0.26458 z m 0.9260417,0 v 1.5875 H 3.96875 c 0.1461293,0 0.2645833,-0.11845 0.2645833,-0.26458 v -0.26459 c 0,-0.14612 -0.118454,-0.26458 -0.2645833,-0.26458 0.1461293,0 0.2645833,-0.11845 0.2645833,-0.26458 v -0.26459 c 0,-0.14612 -0.118454,-0.26458 -0.2645833,-0.26458 z M 2.38125,293.29581 h 0.396875 v 0.52917 H 2.38125 Z m 1.190625,0 H 3.96875 v 0.39688 H 3.571875 Z m 0,0.66146 H 3.96875 v 0.39688 H 3.571875 Z m 1.1895915,0.13333 c -0.1095904,0 -0.1984375,0.0888 -0.1984375,0.19843 v 0.59428 c 0,0.18267 -0.1480608,0.33073 -0.3307292,0.33073 H 1.9058269 v -0.32556 c 0,-0.12213 -0.1403673,-0.18624 -0.2268596,-0.0997 l -0.6206339,0.62373 0.6227011,0.6227 c 0.025135,0.0257 0.059603,0.0399 0.094051,0.0398 0.07784,0 0.1315461,-0.0666 0.1291913,-0.14831 v -0.31471 h 2.3280231 c 0.4018492,-1.8e-4 0.7276042,-0.32575 0.7276042,-0.7276 v -0.59532 c 0,-0.10959 -0.088847,-0.19843 -0.1984375,-0.19843 z"/></g></svg>