<svg xmlns="http://www.w3.org/2000/svg" xmlns:svg="http://www.w3.org/2000/svg" id="svg4682" width="48" height="48" version="1.1"><metadata id="metadata4687"/><g id="layer1" transform="translate(-2,-1002.3622)"><g id="g848" transform="matrix(1.6666667,0,0,1.6666667,-124,-617.5748)"><circle id="circle6215" cx="90" cy="986.362" r="14.4" style="color:#000;display:inline;overflow:visible;visibility:visible;opacity:1;vector-effect:none;fill:#141414;fill-opacity:.75294118;fill-rule:nonzero;stroke:none;stroke-width:9.07086563;stroke-linecap:butt;stroke-linejoin:round;stroke-miterlimit:4;stroke-dasharray:none;stroke-dashoffset:0;stroke-opacity:1;marker:none;enable-background:accumulate"/><path id="path7994-6" d="m 82,978.36217 -1,1 4,4 c 0,0.7372 0.1675,1.4648 0.4805,2.1309 l 4.0527,8.5507 c 0.01,0.012 0.011,0.024 0.018,0.035 0.083,0.1727 0.2576,0.2827 0.4492,0.2832 0.2009,2e-4 0.3824,-0.1198 0.4609,-0.3047 l 1.6836,-3.5508 4.8555,4.8555 1,-1 z m 8,0 c -1.6381,0 -3.0794,0.7943 -3.9863,2.0137 l 7.4179,7.4179 1.0918,-2.3007 c 0.3159,-0.6661 0.4749,-1.3937 0.4766,-2.1309 0,-2.7614 -2.2386,-5 -5,-5 z" style="color:#000;font-style:normal;font-variant:normal;font-weight:400;font-stretch:normal;font-size:medium;line-height:normal;font-family:sans-serif;font-variant-ligatures:normal;font-variant-position:normal;font-variant-caps:normal;font-variant-numeric:normal;font-variant-alternates:normal;font-feature-settings:normal;text-indent:0;text-align:start;text-decoration:none;text-decoration-line:none;text-decoration-style:solid;text-decoration-color:#000;letter-spacing:normal;word-spacing:normal;text-transform:none;writing-mode:lr-tb;direction:ltr;text-orientation:mixed;dominant-baseline:auto;baseline-shift:baseline;text-anchor:start;white-space:normal;shape-padding:0;clip-rule:nonzero;display:inline;overflow:visible;visibility:visible;opacity:1;isolation:auto;mix-blend-mode:normal;color-interpolation:sRGB;color-interpolation-filters:linearRGB;solid-color:#000;solid-opacity:1;vector-effect:none;fill:#fafafa;fill-opacity:1;fill-rule:evenodd;stroke:none;stroke-width:1px;stroke-linecap:butt;stroke-linejoin:miter;stroke-miterlimit:4;stroke-dasharray:none;stroke-dashoffset:0;stroke-opacity:1;color-rendering:auto;image-rendering:auto;shape-rendering:auto;text-rendering:auto;enable-background:accumulate"/></g></g></svg>