<svg xmlns="http://www.w3.org/2000/svg" xmlns:svg="http://www.w3.org/2000/svg" id="svg4682" width="20" height="20" version="1.1"><metadata id="metadata4687"/><g id="layer1" transform="translate(0,-1032.3622)"><path style="opacity:1;fill:#000;fill-opacity:1;stroke:none;stroke-width:.32731667;stroke-linejoin:miter;stroke-miterlimit:4;stroke-dasharray:none;stroke-opacity:1" id="rect6696" d="m 5.75,1038.6122 a 3.7499783,3.7499783 0 0 0 -3.75,3.75 3.7499783,3.7499783 0 0 0 3.75,3.75 H 9 v -1.5 H 5.75 a 2.249987,2.249987 0 0 1 -2.25,-2.25 2.249987,2.249987 0 0 1 2.25,-2.25 H 9 v -1.5 z m 5.25,0 v 1.5 h 3.25 a 2.249987,2.249987 0 0 1 2.25,2.25 2.249987,2.249987 0 0 1 -2.25,2.25 H 11 v 1.5 h 3.25 a 3.7499783,3.7499783 0 0 0 3.75,-3.75 3.7499783,3.7499783 0 0 0 -3.75,-3.75 z m -4,3 v 1.5 h 6 v -1.5 z"/></g></svg>