<svg xmlns="http://www.w3.org/2000/svg" xmlns:svg="http://www.w3.org/2000/svg" id="svg4682" width="20" height="20" version="1.1"><metadata id="metadata4687"/><g id="layer1" transform="translate(0,-1032.3622)"><path style="color:#000;display:inline;overflow:visible;visibility:visible;opacity:1;vector-effect:none;fill:#212121;fill-opacity:1;fill-rule:nonzero;stroke:none;stroke-width:15.11811066;stroke-linecap:round;stroke-linejoin:round;stroke-miterlimit:4;stroke-dasharray:none;stroke-dashoffset:0;stroke-opacity:1;marker:none;paint-order:markers fill stroke;enable-background:accumulate" id="circle7821" d="m 14.5,1034.3622 a 2.5,2.5 0 0 0 -2.5,2.5 2.5,2.5 0 0 0 0.082,0.6211 l -4.88867,3.043 A 2.5,2.5 0 0 0 5.5,1039.8622 a 2.5,2.5 0 0 0 -2.5,2.5 2.5,2.5 0 0 0 2.5,2.5 2.5,2.5 0 0 0 1.64062,-0.6172 l 4.93555,3.0156 A 2.5,2.5 0 0 0 12,1047.8622 a 2.5,2.5 0 0 0 2.5,2.5 2.5,2.5 0 0 0 2.5,-2.5 2.5,2.5 0 0 0 -2.5,-2.5 2.5,2.5 0 0 0 -1.64258,0.6191 l -4.93554,-3.0156 A 2.5,2.5 0 0 0 8,1042.3622 2.5,2.5 0 0 0 7.9375,1041.827 l 4.93359,-3.0683 a 2.5,2.5 0 0 0 1.62891,0.6035 2.5,2.5 0 0 0 2.5,-2.5 2.5,2.5 0 0 0 -2.5,-2.5 z"/></g></svg>