<svg xmlns="http://www.w3.org/2000/svg" xmlns:svg="http://www.w3.org/2000/svg" id="svg4682" width="20" height="20" version="1.1"><metadata id="metadata4687"/><g id="layer1" transform="translate(0,-1032.3622)"><path style="fill:#212121;fill-opacity:1;stroke:none;stroke-width:.66666675" id="path5279" d="m 10.041172,1036.3622 -1.55469,4.666 h -4.44531 l 3.41602,2.5039 3.73046,-3.7304 z m 4.30469,2.0742 v 0 0.01 c -0.24096,0 -0.48137,0.093 -0.66602,0.2773 l -0.38867,0.3848 2,1.998 0.42773,-0.4257 c 0.33012,-0.3705 0.32069,-0.9336 -0.0352,-1.2891 l -0.004,-0.01 -0.66406,-0.6621 -0.004,-0.01 c -0.18467,-0.1842 -0.42504,-0.2774 -0.66601,-0.2774 z m -1.72071,1.336 -6.58398,6.5898 v 2 h 2 l 6.58398,-6.5898 z m 0.26954,5.1503 -1.5,1.5 2.64648,1.9395 z"/></g></svg>