<svg xmlns="http://www.w3.org/2000/svg" xmlns:svg="http://www.w3.org/2000/svg" id="svg4682" width="48" height="48" version="1.1"><metadata id="metadata4687"/><g id="layer1" transform="translate(-2,-1002.3622)"><circle style="color:#000;display:inline;overflow:visible;visibility:visible;opacity:1;vector-effect:none;fill:#141414;fill-opacity:.75294118;fill-rule:nonzero;stroke:none;stroke-width:15.1181097;stroke-linecap:butt;stroke-linejoin:round;stroke-miterlimit:4;stroke-dasharray:none;stroke-dashoffset:0;stroke-opacity:1;marker:none;enable-background:accumulate" id="circle6014" cx="26" cy="1026.362" r="24"/><path style="fill:#fafafa;fill-opacity:1;stroke:none;stroke-width:2" id="path6179" d="m 26.000001,1014.3624 c -6.6274,0 -12,5.3725 -12,12 0,6.6274 5.3726,12 12,12 v -2.25 c -5.3848,0 -9.75,-4.3652 -9.75,-9.75 0,-5.3849 4.3652,-9.75 9.75,-9.75 5.3849,0 9.75,4.3651 9.75,9.75 -3e-4,0.6324 -0.062,1.2633 -0.1845,1.8838 l 1.8311,1.8311 c 0.3952,-1.1988 0.5989,-2.4525 0.6034,-3.7149 0,-6.6275 -5.3725,-12 -12,-12 z m -5.83,6.1699 a 8.25,8.25 0 0 0 -2.42,5.8301 h 3.75 a 4.5,4.5 0 0 1 1.3214,-3.1787 z m 5.83,2.8301 a 3,3 0 0 0 -3,3 3,3 0 0 0 3,3 3,3 0 0 0 3,-3 3,3 0 0 0 -3,-3 z m 6,4.5 -6,6 h 2.25 v 4.5 h 2.625 v -3 h 0.375 1.5 0.375 v 3 h 2.625 v -4.5 h 2.25 z"/></g></svg>