<svg xmlns="http://www.w3.org/2000/svg" xmlns:svg="http://www.w3.org/2000/svg" id="svg4682" width="24" height="24" version="1.1"><metadata id="metadata4687"/><g id="layer1" transform="translate(0,-1028.3622)"><path style="fill:#212121;fill-opacity:1;fill-rule:evenodd;stroke:none;stroke-width:1px;stroke-linecap:butt;stroke-linejoin:miter;stroke-opacity:1" id="path4897" d="m 3.5,1033.3622 c -0.831,0 -1.5,0.669 -1.5,1.5 v 11 c 0,0.831 0.669,1.5 1.5,1.5 h 13 c 0.831,0 1.5,-0.669 1.5,-1.5 v -3 h -1.5 v 3 h -13 v -11 h 13 v 3 H 18 v -3 c 0,-0.831 -0.669,-1.5 -1.5,-1.5 z m 10.03516,3.4668 -0.88477,0.8848 a 3.75,3.75 0 0 1 1.09961,2.6484 3.75,3.75 0 0 1 -1.09961,2.6523 l 0.88281,0.8829 A 5,5 0 0 0 15,1040.3622 5,5 0 0 0 13.53516,1036.829 Z m -7.06836,0 A 5,5 0 0 0 5,1040.3622 a 5,5 0 0 0 1.4668,3.5352 l 0.88476,-0.8848 A 3.75,3.75 0 0 1 6.25,1040.3622 3.75,3.75 0 0 1 7.34961,1037.7138 Z M 19,1037.3642 v 2 h -2.5 v 2 H 19 v 2 l 3,-3 z m -9,0.498 a 2.5,2.5 0 0 0 -2.5,2.5 2.5,2.5 0 0 0 2.5,2.5 2.5,2.5 0 0 0 2.5,-2.5 2.5,2.5 0 0 0 -2.5,-2.5 z m 0,1.25 a 1.25,1.25 0 0 1 1.25,1.25 1.25,1.25 0 0 1 -1.25,1.25 1.25,1.25 0 0 1 -1.25,-1.25 1.25,1.25 0 0 1 1.25,-1.25 z"/></g></svg>