<svg xmlns="http://www.w3.org/2000/svg" xmlns:svg="http://www.w3.org/2000/svg" id="svg4682" width="24" height="24" version="1.1"><metadata id="metadata4687"/><g id="layer1" transform="translate(0,-1028.3622)"><path style="color:#000;font-style:normal;font-variant:normal;font-weight:400;font-stretch:normal;font-size:medium;line-height:normal;font-family:sans-serif;font-variant-ligatures:normal;font-variant-position:normal;font-variant-caps:normal;font-variant-numeric:normal;font-variant-alternates:normal;font-feature-settings:normal;text-indent:0;text-align:start;text-decoration:none;text-decoration-line:none;text-decoration-style:solid;text-decoration-color:#000;letter-spacing:normal;word-spacing:normal;text-transform:none;writing-mode:lr-tb;direction:ltr;text-orientation:mixed;dominant-baseline:auto;baseline-shift:baseline;text-anchor:start;white-space:normal;shape-padding:0;clip-rule:nonzero;display:inline;overflow:visible;visibility:visible;opacity:1;isolation:auto;mix-blend-mode:normal;color-interpolation:sRGB;color-interpolation-filters:linearRGB;solid-color:#000;solid-opacity:1;vector-effect:none;fill:#212121;fill-opacity:1;fill-rule:evenodd;stroke:none;stroke-width:2;stroke-linecap:round;stroke-linejoin:round;stroke-miterlimit:4;stroke-dasharray:none;stroke-dashoffset:0;stroke-opacity:1;color-rendering:auto;image-rendering:auto;shape-rendering:auto;text-rendering:auto;enable-background:accumulate" id="path7574-6" d="m 16.488281,1032.0627 c -0.1291,0 -0.258015,0.054 -0.353515,0.1562 -0.089,0.089 -0.134266,0.2139 -0.134766,0.3399 v 1.8027 H 9 c -1.6569,0 -3,1.3431 -3,3 v 1 c -0.01,0.5638 0.451825,1.0225 1.015625,1.0137 0.5515,-0.01 0.991975,-0.4621 0.984375,-1.0137 v -1 c 0,-0.5523 0.4477,-1 1,-1 H 11.824219 16 v 1.8047 c 2e-4,0.4415 0.533403,0.6617 0.845703,0.3496 L 20,1035.3615 l -3.154297,-3.1543 c -0.099,-0.099 -0.228422,-0.1469 -0.357422,-0.1445 z m -4.5,6.039 c -0.1563,0 -0.295694,0.067 -0.433593,0.1465 l -1.28711,0.6719 c -0.5911999,0.3098 -0.126356,1.1965 0.464844,0.8867 L 11.25,1039.5353 v 2.3282 c -0.014,1.0142 1.5143,1.0142 1.5,0 v -3 c 0.01,-0.4234 -0.338319,-0.7684 -0.761719,-0.7618 z m 4.996094,3.2461 c -0.5515,0.01 -0.991975,0.4621 -0.984375,1.0137 v 1 c 0,0.5523 -0.4477,1 -1,1 H 12.175781 8 v -1.8027 c -2e-4,-0.4415 -0.5334031,-0.6637 -0.8457031,-0.3516 L 4,1045.3635 l 3.1542969,3.1543 c 0.1974,0.1974 0.5178844,0.1907 0.7089843,-0.014 0.089,-0.089 0.1362188,-0.2119 0.1367188,-0.3379 v -1.8047 h 7 c 1.6569,0 3,-1.3431 3,-3 v -1 c 0.01,-0.5638 -0.451825,-1.0225 -1.015625,-1.0137 z"/></g></svg>