<svg xmlns="http://www.w3.org/2000/svg" xmlns:svg="http://www.w3.org/2000/svg" id="svg4682" width="48" height="48" version="1.1"><metadata id="metadata4687"/><g id="layer1" transform="translate(-2,-1002.3622)"><circle style="color:#000;display:inline;overflow:visible;visibility:visible;opacity:1;vector-effect:none;fill:#141414;fill-opacity:.75294118;fill-rule:nonzero;stroke:none;stroke-width:15.1181097;stroke-linecap:butt;stroke-linejoin:round;stroke-miterlimit:4;stroke-dasharray:none;stroke-dashoffset:0;stroke-opacity:1;marker:none;enable-background:accumulate" id="circle6014" cx="26" cy="1026.362" r="24"/><path style="color:#000;display:inline;overflow:visible;visibility:visible;opacity:1;vector-effect:none;fill:#fafafa;fill-opacity:1;fill-rule:evenodd;stroke:none;stroke-width:3;stroke-linecap:butt;stroke-linejoin:round;stroke-miterlimit:4;stroke-dasharray:none;stroke-dashoffset:4.19999981;stroke-opacity:1;marker:none;enable-background:accumulate" id="path6173" d="m 16.250001,1015.8624 c -1.2465,0 -2.25,1.0035 -2.25,2.25 v 5.25 h 2.25 v -5.25 h 19.5 v 16.5 h -8.25 v 2.25 h 8.25 c 1.2465,0 2.25,-1.0035 2.25,-2.25 v -16.5 c 0,-1.2465 -1.0035,-2.25 -2.25,-2.25 z m 2.25,4.5 v 3.7909 c 3.8343,1.3593 6.8513,4.3752 8.2119,8.2091 h 6.7881 v -12 z m -4.5,5.25 v 2.25 c 4.9706,0 9,4.0294 9,9 h 2.25 c 0,-6.2133 -5.0368,-11.25 -11.25,-11.25 z m 0,4.5 v 2.25 c 2.4854,0 4.5,2.0146 4.5,4.5 h 2.25 c 0,-3.728 -3.022,-6.75 -6.75,-6.75 z m 0,4.5 v 2.25 h 2.25 c 0,-1.2426 -1.0074,-2.25 -2.25,-2.25 z"/></g></svg>