<svg xmlns="http://www.w3.org/2000/svg" xmlns:svg="http://www.w3.org/2000/svg" id="svg4682" width="24" height="24" version="1.1"><metadata id="metadata4687"/><g id="layer1" transform="translate(0,-1028.3622)"><path style="color:#000;display:inline;overflow:visible;visibility:visible;opacity:1;vector-effect:none;fill:#212121;fill-opacity:1;fill-rule:nonzero;stroke:none;stroke-width:2;stroke-linecap:round;stroke-linejoin:round;stroke-miterlimit:4;stroke-dasharray:none;stroke-dashoffset:0;stroke-opacity:1;marker:none;paint-order:markers fill stroke;enable-background:accumulate" id="path7882" d="m 13,1031.3622 c -0.4088,0 -0.670347,0.024 -0.935547,0.064 l 3.935547,3.936 1.064453,-1.0645 c 1.5374,1.2319 2.433147,3.0945 2.435547,5.0645 H 21 c 0,-4.4183 -3.5817,-8 -8,-8 z m -2.978516,1.6211 c -0.4052,-0.01 -0.795531,0.1528 -1.082031,0.4394 l -3.878906,3.879 c -0.5856,0.5857 -0.5856,1.5353 0,2.121 l 7.878906,7.879 c 0.5857,0.5856 1.535394,0.5856 2.121094,0 l 3.878906,-3.879 c 0.5856,-0.5857 0.5856,-1.5353 0,-2.121 l -7.878906,-7.879 c -0.276,-0.2761 -0.648763,-0.4337 -1.039063,-0.4394 z M 10,1034.8622 l 7.5,7.5 -3.5,3.5 -7.5,-7.5 z m -7,6.5 c 0,4.4183 3.5817,8 8,8 0.4088,0 0.670347,-0.024 0.935547,-0.064 L 8,1045.3622 6.935547,1046.4267 C 5.398147,1045.1948 4.5024,1043.3322 4.5,1041.3622 Z"/></g></svg>