<svg xmlns="http://www.w3.org/2000/svg" xmlns:svg="http://www.w3.org/2000/svg" id="svg4682" width="48" height="48" version="1.1"><metadata id="metadata4687"/><g id="layer1" transform="translate(-2,-1002.3622)"><circle style="color:#000;display:inline;overflow:visible;visibility:visible;opacity:1;vector-effect:none;fill:#141414;fill-opacity:.75294118;fill-rule:nonzero;stroke:none;stroke-width:15.1181097;stroke-linecap:butt;stroke-linejoin:round;stroke-miterlimit:4;stroke-dasharray:none;stroke-dashoffset:0;stroke-opacity:1;marker:none;enable-background:accumulate" id="circle6014" cx="26" cy="1026.362" r="24"/><path id="path6916" d="m 14,1014.3623 -1.5,1.5 3.270527,3.2492 C 15.590308,1019.4697 15.5,1019.9239 15.5,1020.3623 v 9.0001 c 0,1.662 1.338,3 3,3 H 14 v 3 h 18 l 4.5,4.5 1.5,-1.5 z m 6,3 6.1289,6.1289 c 0.4468,-0.081 0.9042,-0.129 1.3711,-0.129 v -3 l 4.5,4.5001 -2.25,2.25 4.9805,4.9803 c 1.0423,-0.4692 1.7695,-1.5092 1.7695,-2.7303 v -9.0001 c 0,-1.662 -1.338,-3 -3,-3 z m 2.1738,8.1739 1.5498,1.5498 c -1.3695,0.506 -2.6472,1.2529 -3.7236,2.2764 0.3404,-1.5064 1.1193,-2.8143 2.1738,-3.8262 z m 12.8262,6.8262 3,3 v -3 z" style="opacity:1;fill:#fafafa;fill-opacity:1;stroke:none;stroke-width:.59759527;stroke-linejoin:miter;stroke-miterlimit:4;stroke-dasharray:none;stroke-opacity:1"/></g></svg>