<svg xmlns="http://www.w3.org/2000/svg" xmlns:svg="http://www.w3.org/2000/svg" id="SVGRoot" width="48" height="48" version="1.1" viewBox="0 0 48 48"><metadata id="metadata7681"/><g id="layer1"><path style="opacity:1;fill:#000;fill-opacity:1;stroke:none;stroke-width:6;stroke-linecap:round;stroke-linejoin:round;stroke-miterlimit:4;stroke-dasharray:none;stroke-dashoffset:0;stroke-opacity:1" id="path2126" d="m 24,7.999999 a 16,16 0 0 0 -16,16 16,16 0 0 0 16,16.000002 2.9999983,2.9999983 0 0 0 3,-3 2.9999983,2.9999983 0 0 0 -3,-3 2.9999983,2.9999983 0 0 1 -3,-3.000002 2.9999983,2.9999983 0 0 1 3,-3 h 12 c 0,0 4,0 4,-4 a 16,16 0 0 0 -16,-16 z m -4.3359,3.9395 a 2.9999967,2.9999967 0 0 1 2.8281,1.7304 2.9999967,2.9999967 0 0 1 -1.4512,3.9864 2.9999967,2.9999967 0 0 1 -3.9863,-1.4512 2.9999967,2.9999967 0 0 1 1.4512,-3.9863 2.9999967,2.9999967 0 0 1 1.1582,-0.2793 z m 8.4589,0 a 2.9999967,2.9999967 0 0 1 1.3711,0.2793 2.9999967,2.9999967 0 0 1 1.4512,3.9863 2.9999967,2.9999967 0 0 1 -3.9863,1.4512 2.9999967,2.9999967 0 0 1 -1.4512,-3.9864 2.9999967,2.9999967 0 0 1 2.6152,-1.7304 z m -13.8085,6.4726 a 2.9999967,2.9999967 0 0 1 0.8027,0.1016 2.9999967,2.9999967 0 0 1 2.1211,3.6738 2.9999967,2.9999967 0 0 1 -3.6738,2.1211 2.9999967,2.9999967 0 0 1 -2.1211,-3.6738 2.9999967,2.9999967 0 0 1 2.8711,-2.2227 z m 19.4589,0 a 2.9999967,2.9999967 0 0 1 2.7832,2.2207 2.9999967,2.9999967 0 0 1 -2.1211,3.6738 2.9999967,2.9999967 0 0 1 -3.6738,-2.1211 2.9999967,2.9999967 0 0 1 2.1211,-3.6738 2.9999967,2.9999967 0 0 1 0.8906,-0.1 z"/></g></svg>