<svg xmlns="http://www.w3.org/2000/svg" xmlns:svg="http://www.w3.org/2000/svg" id="svg8" width="100" height="160" version="1.1" viewBox="0 0 26.458 42.333"><metadata id="metadata5"/><g id="layer1" transform="translate(0,-254.66667)"><path style="fill:#222;stroke-width:.07055799;fill-opacity:1" id="rect3713-3" d="m 1.5783435,254.66667 c -0.78290945,0 -1.43123928,0.56649 -1.57834380197218,1.32292 H 26.458332 c -0.147101,-0.75643 -0.79595,-1.32292 -1.578858,-1.32292 z"/><path style="fill:#2a2a2a;stroke-width:.06861404;fill-opacity:1" id="rect3713-7" d="M 0.02635515,255.98964 C 0.01002506,256.07938 0,256.17135 0,256.26579 v 2.87018 c 0.09812602,0.0181 0.19913071,0.0286 0.30282356,0.0286 H 26.458333 v -2.89885 c 0,-0.0944 -0.01003,-0.18641 -0.02635,-0.27615 z"/><path style="stroke-width:.06954572;fill:#313131;fill-opacity:1" id="rect3713-5" d="m 1.542542,254.66955 c -0.0563,0.002 -0.111768,0.007 -0.166398,0.015 0.05495,-0.007 0.109829,-0.0137 0.166398,-0.015 z M 0,259.13594 v 36.25722 c 0,0.88995 0.716676,1.60662 1.606621,1.60662 h 23.245091 c 0.889945,0 1.606621,-0.71667 1.606621,-1.60662 V 259.16437 H 0.302824 c -0.103693,0 -0.204698,-0.0103 -0.302824,-0.0284 z"/><rect style="fill:#bbb;fill-opacity:1;stroke-width:.28493589" id="rect4638" width="3.969" height="3.969" x="1.323" y="261.281" ry=".967"/><rect style="fill:#bbb;fill-opacity:1;stroke-width:.24491194" id="rect4640" width="15.875" height="1.058" x="6.615" y="263.927" ry=".529"/><rect style="fill:#bbb;fill-opacity:1;stroke-width:.24491194" id="rect4640-3" width="15.875" height="1.058" x="6.615" y="261.81" ry=".529"/><rect style="fill:#bbb;fill-opacity:1;stroke-width:.28493589" id="rect4638-6" width="3.969" height="3.969" x="1.323" y="267.896" ry=".967"/><rect style="fill:#bbb;fill-opacity:1;stroke-width:.24491194" id="rect4640-2" width="15.875" height="1.058" x="6.615" y="270.542" ry=".529"/><rect style="fill:#bbb;fill-opacity:1;stroke-width:.24491194" id="rect4640-3-9" width="15.875" height="1.058" x="6.615" y="268.425" ry=".529"/><rect style="fill:#bbb;fill-opacity:1;stroke-width:.28493589" id="rect4638-6-2" width="3.969" height="3.969" x="1.323" y="274.51" ry=".967"/><rect style="fill:#bbb;fill-opacity:1;stroke-width:.24491194" id="rect4640-2-7" width="15.875" height="1.058" x="6.615" y="277.156" ry=".529"/><rect style="fill:#bbb;fill-opacity:1;stroke-width:.24491194" id="rect4640-3-9-0" width="15.875" height="1.058" x="6.615" y="275.04" ry=".529"/><rect style="fill:#bbb;fill-opacity:1;stroke-width:.28493589" id="rect4638-6-2-3" width="3.969" height="3.969" x="1.323" y="281.125" ry=".967"/><rect style="fill:#bbb;fill-opacity:1;stroke-width:.24491194" id="rect4640-2-7-6" width="15.875" height="1.058" x="6.615" y="283.771" ry=".529"/><rect style="fill:#bbb;fill-opacity:1;stroke-width:.24491194" id="rect4640-3-9-0-0" width="15.875" height="1.058" x="6.615" y="281.654" ry=".529"/><rect style="fill:#bbb;fill-opacity:1;stroke-width:.28493589" id="rect4638-6-2-3-2" width="3.969" height="3.969" x="1.323" y="287.74" ry=".967"/><rect style="fill:#bbb;fill-opacity:1;stroke-width:.24491194" id="rect4640-2-7-6-6" width="15.875" height="1.058" x="6.615" y="290.385" ry=".529"/><rect style="fill:#bbb;fill-opacity:1;stroke-width:.24491194" id="rect4640-3-9-0-0-1" width="15.875" height="1.058" x="6.615" y="288.269" ry=".529"/><circle style="fill:#fc7c00;fill-opacity:1;stroke-width:.29243419" id="path4811" cx="22.622" cy="291.841" r="1.984"/></g></svg>