<svg xmlns="http://www.w3.org/2000/svg" xmlns:svg="http://www.w3.org/2000/svg" id="svg4682" width="40" height="40" version="1.1"><metadata id="metadata4687"/><g id="layer1" transform="translate(0,-1012.3622)"><path style="color:#000;font-style:normal;font-variant:normal;font-weight:400;font-stretch:normal;font-size:medium;line-height:normal;font-family:sans-serif;font-variant-ligatures:normal;font-variant-position:normal;font-variant-caps:normal;font-variant-numeric:normal;font-variant-alternates:normal;font-feature-settings:normal;text-indent:0;text-align:start;text-decoration:none;text-decoration-line:none;text-decoration-style:solid;text-decoration-color:#000;letter-spacing:normal;word-spacing:normal;text-transform:none;writing-mode:lr-tb;direction:ltr;text-orientation:mixed;dominant-baseline:auto;baseline-shift:baseline;text-anchor:start;white-space:normal;shape-padding:0;clip-rule:nonzero;display:inline;overflow:visible;visibility:visible;opacity:1;isolation:auto;mix-blend-mode:normal;color-interpolation:sRGB;color-interpolation-filters:linearRGB;solid-color:#000;solid-opacity:1;vector-effect:none;fill:#212121;fill-opacity:1;fill-rule:evenodd;stroke:none;stroke-width:3.07677102;stroke-linecap:butt;stroke-linejoin:round;stroke-miterlimit:4;stroke-dasharray:none;stroke-dashoffset:0;stroke-opacity:1;color-rendering:auto;image-rendering:auto;shape-rendering:auto;text-rendering:auto;enable-background:accumulate" id="path7957" d="m 11.538461,1041.5927 c 0.852308,0 1.538462,-0.6862 1.538462,-1.5383 v -15.3831 c 0,-0.8523 -0.686154,-1.5383 -1.538462,-1.5383 -0.852307,0 -1.5384611,0.686 -1.5384611,1.5383 v 15.3831 c 0,0.8521 0.6861541,1.5383 1.5384611,1.5383 z m 16.893076,0 c 0.860154,0.017 1.56677,-0.6751 1.568462,-1.5352 v -15.3831 c 0.0014,-1.2526 -1.415077,-1.9819 -2.433846,-1.2529 l -10.76923,7.6915 c -0.858308,0.6135 -0.858308,1.8892 0,2.5028 l 10.76923,7.6915 c 0.252923,0.1803 0.554615,0.2799 0.865384,0.2854 z"/></g></svg>